<?xml version="1.0" encoding="utf-8" standalone="no"?>
<!DOCTYPE svg PUBLIC "-//W3C//DTD SVG 1.1//EN"
  "http://www.w3.org/Graphics/SVG/1.1/DTD/svg11.dtd">
<svg xmlns:xlink="http://www.w3.org/1999/xlink" width="938.420312pt" height="601.785495pt" viewBox="0 0 938.420312 601.785495" xmlns="http://www.w3.org/2000/svg" version="1.1">
 <metadata>
  <rdf:RDF xmlns:dc="http://purl.org/dc/elements/1.1/" xmlns:cc="http://creativecommons.org/ns#" xmlns:rdf="http://www.w3.org/1999/02/22-rdf-syntax-ns#">
   <cc:Work>
    <dc:type rdf:resource="http://purl.org/dc/dcmitype/StillImage"/>
    <dc:date>2022-11-09T13:31:58.490681</dc:date>
    <dc:format>image/svg+xml</dc:format>
    <dc:creator>
     <cc:Agent>
      <dc:title>Matplotlib v3.5.1, https://matplotlib.org/</dc:title>
     </cc:Agent>
    </dc:creator>
   </cc:Work>
  </rdf:RDF>
 </metadata>
 <defs>
  <style type="text/css">*{stroke-linejoin: round; stroke-linecap: butt}</style>
 </defs>
 <g id="figure_1">
  <g id="patch_1">
   <path d="M 0 601.785495 
L 938.420312 601.785495 
L 938.420312 0 
L 0 0 
z
"/>
  </g>
  <g id="axes_1">
   <g id="patch_2">
    <path d="M 376.076307 188.485302 
C 376.076307 164.193174 366.416004 140.87114 349.238876 123.694012 
C 332.061747 106.516883 308.739713 96.85658 284.447585 96.85658 
C 260.155457 96.85658 236.833423 106.516883 219.656295 123.694012 
C 202.479166 140.87114 192.818863 164.193174 192.818863 188.485302 
L 284.447585 188.485302 
L 376.076307 188.485302 
z
" style="fill: #08306b"/>
   </g>
   <g id="patch_3">
    <path d="M 192.818863 188.485302 
C 192.818863 210.841215 201.00058 232.442177 215.811134 249.188351 
C 230.621687 265.934526 251.060784 276.694888 273.249106 279.427134 
L 284.447585 188.485302 
L 192.818863 188.485302 
z
" style="fill: #2171b5"/>
   </g>
   <g id="patch_4">
    <path d="M 273.249106 279.427134 
C 286.15369 281.01619 299.249927 279.84047 311.665126 275.97832 
C 324.080325 272.11617 335.532452 265.655325 345.258375 257.026315 
L 284.447585 188.485302 
L 273.249106 279.427134 
z
" style="fill: #6caed6"/>
   </g>
   <g id="patch_5">
    <path d="M 345.258375 257.026315 
C 351.188169 251.765299 356.410239 245.756935 360.793635 239.151893 
C 365.177031 232.54685 368.684805 225.400804 371.228994 217.892952 
L 284.447585 188.485302 
L 345.258375 257.026315 
z
" style="fill: #c7dbef"/>
   </g>
   <g id="patch_6">
    <path d="M 371.228994 217.892952 
C 372.831255 213.164707 374.044416 208.313414 374.856358 203.387535 
C 375.668299 198.461656 376.076307 193.477648 376.076307 188.4853 
L 284.447585 188.485302 
L 371.228994 217.892952 
z
" style="fill: #f7fbff"/>
   </g>
   <g id="matplotlib.axis_1"/>
   <g id="matplotlib.axis_2"/>
   <g id="text_1">
    <!-- domainUnion -->
    <g style="fill: #ffffff" transform="translate(284.447585 90.453083)scale(0.1 -0.1)">
     <defs>
      <path id="DejaVuSans-64" d="M 2906 2969 
L 2906 4863 
L 3481 4863 
L 3481 0 
L 2906 0 
L 2906 525 
Q 2725 213 2448 61 
Q 2172 -91 1784 -91 
Q 1150 -91 751 415 
Q 353 922 353 1747 
Q 353 2572 751 3078 
Q 1150 3584 1784 3584 
Q 2172 3584 2448 3432 
Q 2725 3281 2906 2969 
z
M 947 1747 
Q 947 1113 1208 752 
Q 1469 391 1925 391 
Q 2381 391 2643 752 
Q 2906 1113 2906 1747 
Q 2906 2381 2643 2742 
Q 2381 3103 1925 3103 
Q 1469 3103 1208 2742 
Q 947 2381 947 1747 
z
" transform="scale(0.015625)"/>
      <path id="DejaVuSans-6f" d="M 1959 3097 
Q 1497 3097 1228 2736 
Q 959 2375 959 1747 
Q 959 1119 1226 758 
Q 1494 397 1959 397 
Q 2419 397 2687 759 
Q 2956 1122 2956 1747 
Q 2956 2369 2687 2733 
Q 2419 3097 1959 3097 
z
M 1959 3584 
Q 2709 3584 3137 3096 
Q 3566 2609 3566 1747 
Q 3566 888 3137 398 
Q 2709 -91 1959 -91 
Q 1206 -91 779 398 
Q 353 888 353 1747 
Q 353 2609 779 3096 
Q 1206 3584 1959 3584 
z
" transform="scale(0.015625)"/>
      <path id="DejaVuSans-6d" d="M 3328 2828 
Q 3544 3216 3844 3400 
Q 4144 3584 4550 3584 
Q 5097 3584 5394 3201 
Q 5691 2819 5691 2113 
L 5691 0 
L 5113 0 
L 5113 2094 
Q 5113 2597 4934 2840 
Q 4756 3084 4391 3084 
Q 3944 3084 3684 2787 
Q 3425 2491 3425 1978 
L 3425 0 
L 2847 0 
L 2847 2094 
Q 2847 2600 2669 2842 
Q 2491 3084 2119 3084 
Q 1678 3084 1418 2786 
Q 1159 2488 1159 1978 
L 1159 0 
L 581 0 
L 581 3500 
L 1159 3500 
L 1159 2956 
Q 1356 3278 1631 3431 
Q 1906 3584 2284 3584 
Q 2666 3584 2933 3390 
Q 3200 3197 3328 2828 
z
" transform="scale(0.015625)"/>
      <path id="DejaVuSans-61" d="M 2194 1759 
Q 1497 1759 1228 1600 
Q 959 1441 959 1056 
Q 959 750 1161 570 
Q 1363 391 1709 391 
Q 2188 391 2477 730 
Q 2766 1069 2766 1631 
L 2766 1759 
L 2194 1759 
z
M 3341 1997 
L 3341 0 
L 2766 0 
L 2766 531 
Q 2569 213 2275 61 
Q 1981 -91 1556 -91 
Q 1019 -91 701 211 
Q 384 513 384 1019 
Q 384 1609 779 1909 
Q 1175 2209 1959 2209 
L 2766 2209 
L 2766 2266 
Q 2766 2663 2505 2880 
Q 2244 3097 1772 3097 
Q 1472 3097 1187 3025 
Q 903 2953 641 2809 
L 641 3341 
Q 956 3463 1253 3523 
Q 1550 3584 1831 3584 
Q 2591 3584 2966 3190 
Q 3341 2797 3341 1997 
z
" transform="scale(0.015625)"/>
      <path id="DejaVuSans-69" d="M 603 3500 
L 1178 3500 
L 1178 0 
L 603 0 
L 603 3500 
z
M 603 4863 
L 1178 4863 
L 1178 4134 
L 603 4134 
L 603 4863 
z
" transform="scale(0.015625)"/>
      <path id="DejaVuSans-6e" d="M 3513 2113 
L 3513 0 
L 2938 0 
L 2938 2094 
Q 2938 2591 2744 2837 
Q 2550 3084 2163 3084 
Q 1697 3084 1428 2787 
Q 1159 2491 1159 1978 
L 1159 0 
L 581 0 
L 581 3500 
L 1159 3500 
L 1159 2956 
Q 1366 3272 1645 3428 
Q 1925 3584 2291 3584 
Q 2894 3584 3203 3211 
Q 3513 2838 3513 2113 
z
" transform="scale(0.015625)"/>
      <path id="DejaVuSans-55" d="M 556 4666 
L 1191 4666 
L 1191 1831 
Q 1191 1081 1462 751 
Q 1734 422 2344 422 
Q 2950 422 3222 751 
Q 3494 1081 3494 1831 
L 3494 4666 
L 4128 4666 
L 4128 1753 
Q 4128 841 3676 375 
Q 3225 -91 2344 -91 
Q 1459 -91 1007 375 
Q 556 841 556 1753 
L 556 4666 
z
" transform="scale(0.015625)"/>
     </defs>
     <use xlink:href="#DejaVuSans-64"/>
     <use xlink:href="#DejaVuSans-6f" x="63.476562"/>
     <use xlink:href="#DejaVuSans-6d" x="124.658203"/>
     <use xlink:href="#DejaVuSans-61" x="222.070312"/>
     <use xlink:href="#DejaVuSans-69" x="283.349609"/>
     <use xlink:href="#DejaVuSans-6e" x="311.132812"/>
     <use xlink:href="#DejaVuSans-55" x="374.511719"/>
     <use xlink:href="#DejaVuSans-6e" x="447.705078"/>
     <use xlink:href="#DejaVuSans-69" x="511.083984"/>
     <use xlink:href="#DejaVuSans-6f" x="538.867188"/>
     <use xlink:href="#DejaVuSans-6e" x="600.048828"/>
    </g>
   </g>
   <g id="text_2">
    <!-- analyst -->
    <g style="fill: #ffffff" transform="translate(172.527176 258.018031)scale(0.1 -0.1)">
     <defs>
      <path id="DejaVuSans-6c" d="M 603 4863 
L 1178 4863 
L 1178 0 
L 603 0 
L 603 4863 
z
" transform="scale(0.015625)"/>
      <path id="DejaVuSans-79" d="M 2059 -325 
Q 1816 -950 1584 -1140 
Q 1353 -1331 966 -1331 
L 506 -1331 
L 506 -850 
L 844 -850 
Q 1081 -850 1212 -737 
Q 1344 -625 1503 -206 
L 1606 56 
L 191 3500 
L 800 3500 
L 1894 763 
L 2988 3500 
L 3597 3500 
L 2059 -325 
z
" transform="scale(0.015625)"/>
      <path id="DejaVuSans-73" d="M 2834 3397 
L 2834 2853 
Q 2591 2978 2328 3040 
Q 2066 3103 1784 3103 
Q 1356 3103 1142 2972 
Q 928 2841 928 2578 
Q 928 2378 1081 2264 
Q 1234 2150 1697 2047 
L 1894 2003 
Q 2506 1872 2764 1633 
Q 3022 1394 3022 966 
Q 3022 478 2636 193 
Q 2250 -91 1575 -91 
Q 1294 -91 989 -36 
Q 684 19 347 128 
L 347 722 
Q 666 556 975 473 
Q 1284 391 1588 391 
Q 1994 391 2212 530 
Q 2431 669 2431 922 
Q 2431 1156 2273 1281 
Q 2116 1406 1581 1522 
L 1381 1569 
Q 847 1681 609 1914 
Q 372 2147 372 2553 
Q 372 3047 722 3315 
Q 1072 3584 1716 3584 
Q 2034 3584 2315 3537 
Q 2597 3491 2834 3397 
z
" transform="scale(0.015625)"/>
      <path id="DejaVuSans-74" d="M 1172 4494 
L 1172 3500 
L 2356 3500 
L 2356 3053 
L 1172 3053 
L 1172 1153 
Q 1172 725 1289 603 
Q 1406 481 1766 481 
L 2356 481 
L 2356 0 
L 1766 0 
Q 1100 0 847 248 
Q 594 497 594 1153 
L 594 3053 
L 172 3053 
L 172 3500 
L 594 3500 
L 594 4494 
L 1172 4494 
z
" transform="scale(0.015625)"/>
     </defs>
     <use xlink:href="#DejaVuSans-61"/>
     <use xlink:href="#DejaVuSans-6e" x="61.279297"/>
     <use xlink:href="#DejaVuSans-61" x="124.658203"/>
     <use xlink:href="#DejaVuSans-6c" x="185.9375"/>
     <use xlink:href="#DejaVuSans-79" x="213.720703"/>
     <use xlink:href="#DejaVuSans-73" x="272.900391"/>
     <use xlink:href="#DejaVuSans-74" x="325"/>
    </g>
   </g>
   <g id="text_3">
    <!-- diplomat -->
    <g style="fill: #ffffff" transform="translate(314.38688 287.486997)scale(0.1 -0.1)">
     <defs>
      <path id="DejaVuSans-70" d="M 1159 525 
L 1159 -1331 
L 581 -1331 
L 581 3500 
L 1159 3500 
L 1159 2969 
Q 1341 3281 1617 3432 
Q 1894 3584 2278 3584 
Q 2916 3584 3314 3078 
Q 3713 2572 3713 1747 
Q 3713 922 3314 415 
Q 2916 -91 2278 -91 
Q 1894 -91 1617 61 
Q 1341 213 1159 525 
z
M 3116 1747 
Q 3116 2381 2855 2742 
Q 2594 3103 2138 3103 
Q 1681 3103 1420 2742 
Q 1159 2381 1159 1747 
Q 1159 1113 1420 752 
Q 1681 391 2138 391 
Q 2594 391 2855 752 
Q 3116 1113 3116 1747 
z
" transform="scale(0.015625)"/>
     </defs>
     <use xlink:href="#DejaVuSans-64"/>
     <use xlink:href="#DejaVuSans-69" x="63.476562"/>
     <use xlink:href="#DejaVuSans-70" x="91.259766"/>
     <use xlink:href="#DejaVuSans-6c" x="154.736328"/>
     <use xlink:href="#DejaVuSans-6f" x="182.519531"/>
     <use xlink:href="#DejaVuSans-6d" x="243.701172"/>
     <use xlink:href="#DejaVuSans-61" x="341.113281"/>
     <use xlink:href="#DejaVuSans-74" x="402.392578"/>
    </g>
   </g>
   <g id="text_4">
    <!-- explorer -->
    <g style="fill: #ffffff" transform="translate(368.42824 246.977927)scale(0.1 -0.1)">
     <defs>
      <path id="DejaVuSans-65" d="M 3597 1894 
L 3597 1613 
L 953 1613 
Q 991 1019 1311 708 
Q 1631 397 2203 397 
Q 2534 397 2845 478 
Q 3156 559 3463 722 
L 3463 178 
Q 3153 47 2828 -22 
Q 2503 -91 2169 -91 
Q 1331 -91 842 396 
Q 353 884 353 1716 
Q 353 2575 817 3079 
Q 1281 3584 2069 3584 
Q 2775 3584 3186 3129 
Q 3597 2675 3597 1894 
z
M 3022 2063 
Q 3016 2534 2758 2815 
Q 2500 3097 2075 3097 
Q 1594 3097 1305 2825 
Q 1016 2553 972 2059 
L 3022 2063 
z
" transform="scale(0.015625)"/>
      <path id="DejaVuSans-78" d="M 3513 3500 
L 2247 1797 
L 3578 0 
L 2900 0 
L 1881 1375 
L 863 0 
L 184 0 
L 1544 1831 
L 300 3500 
L 978 3500 
L 1906 2253 
L 2834 3500 
L 3513 3500 
z
" transform="scale(0.015625)"/>
      <path id="DejaVuSans-72" d="M 2631 2963 
Q 2534 3019 2420 3045 
Q 2306 3072 2169 3072 
Q 1681 3072 1420 2755 
Q 1159 2438 1159 1844 
L 1159 0 
L 581 0 
L 581 3500 
L 1159 3500 
L 1159 2956 
Q 1341 3275 1631 3429 
Q 1922 3584 2338 3584 
Q 2397 3584 2469 3576 
Q 2541 3569 2628 3553 
L 2631 2963 
z
" transform="scale(0.015625)"/>
     </defs>
     <use xlink:href="#DejaVuSans-65"/>
     <use xlink:href="#DejaVuSans-78" x="59.773438"/>
     <use xlink:href="#DejaVuSans-70" x="118.953125"/>
     <use xlink:href="#DejaVuSans-6c" x="182.429688"/>
     <use xlink:href="#DejaVuSans-6f" x="210.212891"/>
     <use xlink:href="#DejaVuSans-72" x="271.394531"/>
     <use xlink:href="#DejaVuSans-65" x="310.257812"/>
     <use xlink:href="#DejaVuSans-72" x="371.78125"/>
    </g>
   </g>
   <g id="text_5">
    <!-- sentinel -->
    <g style="fill: #ffffff" transform="translate(383.897235 207.637133)scale(0.1 -0.1)">
     <use xlink:href="#DejaVuSans-73"/>
     <use xlink:href="#DejaVuSans-65" x="52.099609"/>
     <use xlink:href="#DejaVuSans-6e" x="113.623047"/>
     <use xlink:href="#DejaVuSans-74" x="177.001953"/>
     <use xlink:href="#DejaVuSans-69" x="216.210938"/>
     <use xlink:href="#DejaVuSans-6e" x="243.994141"/>
     <use xlink:href="#DejaVuSans-65" x="307.373047"/>
     <use xlink:href="#DejaVuSans-6c" x="368.896484"/>
    </g>
   </g>
   <g id="text_6">
    <!-- General Population (Pie)    -->
    <g style="fill: #ffffff" transform="translate(206.22446 67.9494)scale(0.12 -0.12)">
     <defs>
      <path id="DejaVuSans-47" d="M 3809 666 
L 3809 1919 
L 2778 1919 
L 2778 2438 
L 4434 2438 
L 4434 434 
Q 4069 175 3628 42 
Q 3188 -91 2688 -91 
Q 1594 -91 976 548 
Q 359 1188 359 2328 
Q 359 3472 976 4111 
Q 1594 4750 2688 4750 
Q 3144 4750 3555 4637 
Q 3966 4525 4313 4306 
L 4313 3634 
Q 3963 3931 3569 4081 
Q 3175 4231 2741 4231 
Q 1884 4231 1454 3753 
Q 1025 3275 1025 2328 
Q 1025 1384 1454 906 
Q 1884 428 2741 428 
Q 3075 428 3337 486 
Q 3600 544 3809 666 
z
" transform="scale(0.015625)"/>
      <path id="DejaVuSans-20" transform="scale(0.015625)"/>
      <path id="DejaVuSans-50" d="M 1259 4147 
L 1259 2394 
L 2053 2394 
Q 2494 2394 2734 2622 
Q 2975 2850 2975 3272 
Q 2975 3691 2734 3919 
Q 2494 4147 2053 4147 
L 1259 4147 
z
M 628 4666 
L 2053 4666 
Q 2838 4666 3239 4311 
Q 3641 3956 3641 3272 
Q 3641 2581 3239 2228 
Q 2838 1875 2053 1875 
L 1259 1875 
L 1259 0 
L 628 0 
L 628 4666 
z
" transform="scale(0.015625)"/>
      <path id="DejaVuSans-75" d="M 544 1381 
L 544 3500 
L 1119 3500 
L 1119 1403 
Q 1119 906 1312 657 
Q 1506 409 1894 409 
Q 2359 409 2629 706 
Q 2900 1003 2900 1516 
L 2900 3500 
L 3475 3500 
L 3475 0 
L 2900 0 
L 2900 538 
Q 2691 219 2414 64 
Q 2138 -91 1772 -91 
Q 1169 -91 856 284 
Q 544 659 544 1381 
z
M 1991 3584 
L 1991 3584 
z
" transform="scale(0.015625)"/>
      <path id="DejaVuSans-28" d="M 1984 4856 
Q 1566 4138 1362 3434 
Q 1159 2731 1159 2009 
Q 1159 1288 1364 580 
Q 1569 -128 1984 -844 
L 1484 -844 
Q 1016 -109 783 600 
Q 550 1309 550 2009 
Q 550 2706 781 3412 
Q 1013 4119 1484 4856 
L 1984 4856 
z
" transform="scale(0.015625)"/>
      <path id="DejaVuSans-29" d="M 513 4856 
L 1013 4856 
Q 1481 4119 1714 3412 
Q 1947 2706 1947 2009 
Q 1947 1309 1714 600 
Q 1481 -109 1013 -844 
L 513 -844 
Q 928 -128 1133 580 
Q 1338 1288 1338 2009 
Q 1338 2731 1133 3434 
Q 928 4138 513 4856 
z
" transform="scale(0.015625)"/>
     </defs>
     <use xlink:href="#DejaVuSans-47"/>
     <use xlink:href="#DejaVuSans-65" x="77.490234"/>
     <use xlink:href="#DejaVuSans-6e" x="139.013672"/>
     <use xlink:href="#DejaVuSans-65" x="202.392578"/>
     <use xlink:href="#DejaVuSans-72" x="263.916016"/>
     <use xlink:href="#DejaVuSans-61" x="305.029297"/>
     <use xlink:href="#DejaVuSans-6c" x="366.308594"/>
     <use xlink:href="#DejaVuSans-20" x="394.091797"/>
     <use xlink:href="#DejaVuSans-50" x="425.878906"/>
     <use xlink:href="#DejaVuSans-6f" x="482.556641"/>
     <use xlink:href="#DejaVuSans-70" x="543.738281"/>
     <use xlink:href="#DejaVuSans-75" x="607.214844"/>
     <use xlink:href="#DejaVuSans-6c" x="670.59375"/>
     <use xlink:href="#DejaVuSans-61" x="698.376953"/>
     <use xlink:href="#DejaVuSans-74" x="759.65625"/>
     <use xlink:href="#DejaVuSans-69" x="798.865234"/>
     <use xlink:href="#DejaVuSans-6f" x="826.648438"/>
     <use xlink:href="#DejaVuSans-6e" x="887.830078"/>
     <use xlink:href="#DejaVuSans-20" x="951.208984"/>
     <use xlink:href="#DejaVuSans-28" x="982.996094"/>
     <use xlink:href="#DejaVuSans-50" x="1022.009766"/>
     <use xlink:href="#DejaVuSans-69" x="1080.0625"/>
     <use xlink:href="#DejaVuSans-65" x="1107.845703"/>
     <use xlink:href="#DejaVuSans-29" x="1169.369141"/>
     <use xlink:href="#DejaVuSans-20" x="1208.382812"/>
     <use xlink:href="#DejaVuSans-20" x="1240.169922"/>
     <use xlink:href="#DejaVuSans-20" x="1271.957031"/>
    </g>
   </g>
  </g>
  <g id="axes_2">
   <g id="patch_7">
    <path d="M 832.621762 463.371468 
C 832.621762 439.079341 822.96146 415.757308 805.784333 398.58018 
C 788.607207 381.403052 765.285175 371.742748 740.993048 371.742746 
C 716.700922 371.742744 693.378888 381.403043 676.201758 398.580168 
C 659.024629 415.757293 649.364323 439.079324 649.364318 463.371451 
L 740.99304 463.371468 
L 832.621762 463.371468 
z
" style="fill: #f7fbff"/>
   </g>
   <g id="patch_8">
    <path d="M 649.364318 463.371451 
C 649.364316 473.285814 650.973438 483.13478 654.128825 492.533617 
C 657.284213 501.932454 661.944239 510.757166 667.926869 518.663034 
L 740.99304 463.371468 
L 649.364318 463.371451 
z
" style="fill: #c6dbef"/>
   </g>
   <g id="patch_9">
    <path d="M 667.926869 518.663034 
C 679.663767 534.172998 696.039787 545.550184 714.670198 551.137809 
C 733.300608 556.725433 753.234931 556.238429 771.570262 549.747715 
L 740.99304 463.371468 
L 667.926869 518.663034 
z
" style="fill: #6aaed6"/>
   </g>
   <g id="patch_10">
    <path d="M 771.570262 549.747715 
C 781.854676 546.107029 791.406696 540.658657 799.775585 533.659696 
C 808.144475 526.660734 815.196494 518.22303 820.598876 508.744737 
L 740.99304 463.371468 
L 771.570262 549.747715 
z
" style="fill: #2070b4"/>
   </g>
   <g id="patch_11">
    <path d="M 820.598876 508.744737 
C 824.521937 501.861861 827.535823 494.499167 829.56505 486.841059 
C 831.594276 479.182951 832.621758 471.293903 832.621762 463.371506 
L 740.99304 463.371468 
L 820.598876 508.744737 
z
" style="fill: #08306b"/>
   </g>
   <g id="matplotlib.axis_3"/>
   <g id="matplotlib.axis_4"/>
   <g id="text_7">
    <!-- domainUnion -->
    <g style="fill: #ffffff" transform="translate(740.993049 365.339249)scale(0.1 -0.1)">
     <use xlink:href="#DejaVuSans-64"/>
     <use xlink:href="#DejaVuSans-6f" x="63.476562"/>
     <use xlink:href="#DejaVuSans-6d" x="124.658203"/>
     <use xlink:href="#DejaVuSans-61" x="222.070312"/>
     <use xlink:href="#DejaVuSans-69" x="283.349609"/>
     <use xlink:href="#DejaVuSans-6e" x="311.132812"/>
     <use xlink:href="#DejaVuSans-55" x="374.511719"/>
     <use xlink:href="#DejaVuSans-6e" x="447.705078"/>
     <use xlink:href="#DejaVuSans-69" x="511.083984"/>
     <use xlink:href="#DejaVuSans-6f" x="538.867188"/>
     <use xlink:href="#DejaVuSans-6e" x="600.048828"/>
    </g>
   </g>
   <g id="text_8">
    <!-- analyst -->
    <g style="fill: #ffffff" transform="translate(609.022092 498.209207)scale(0.1 -0.1)">
     <use xlink:href="#DejaVuSans-61"/>
     <use xlink:href="#DejaVuSans-6e" x="61.279297"/>
     <use xlink:href="#DejaVuSans-61" x="124.658203"/>
     <use xlink:href="#DejaVuSans-6c" x="185.9375"/>
     <use xlink:href="#DejaVuSans-79" x="213.720703"/>
     <use xlink:href="#DejaVuSans-73" x="272.900391"/>
     <use xlink:href="#DejaVuSans-74" x="325"/>
    </g>
   </g>
   <g id="text_9">
    <!-- diplomat -->
    <g style="fill: #ffffff" transform="translate(667.876976 562.673818)scale(0.1 -0.1)">
     <use xlink:href="#DejaVuSans-64"/>
     <use xlink:href="#DejaVuSans-69" x="63.476562"/>
     <use xlink:href="#DejaVuSans-70" x="91.259766"/>
     <use xlink:href="#DejaVuSans-6c" x="154.736328"/>
     <use xlink:href="#DejaVuSans-6f" x="182.519531"/>
     <use xlink:href="#DejaVuSans-6d" x="243.701172"/>
     <use xlink:href="#DejaVuSans-61" x="341.113281"/>
     <use xlink:href="#DejaVuSans-74" x="402.392578"/>
    </g>
   </g>
   <g id="text_10">
    <!-- explorer -->
    <g style="fill: #ffffff" transform="translate(805.65384 543.447894)scale(0.1 -0.1)">
     <use xlink:href="#DejaVuSans-65"/>
     <use xlink:href="#DejaVuSans-78" x="59.773438"/>
     <use xlink:href="#DejaVuSans-70" x="118.953125"/>
     <use xlink:href="#DejaVuSans-6c" x="182.429688"/>
     <use xlink:href="#DejaVuSans-6f" x="210.212891"/>
     <use xlink:href="#DejaVuSans-72" x="271.394531"/>
     <use xlink:href="#DejaVuSans-65" x="310.257812"/>
     <use xlink:href="#DejaVuSans-72" x="371.78125"/>
    </g>
   </g>
   <g id="text_11">
    <!-- sentinel -->
    <g style="fill: #ffffff" transform="translate(838.422251 491.947393)scale(0.1 -0.1)">
     <use xlink:href="#DejaVuSans-73"/>
     <use xlink:href="#DejaVuSans-65" x="52.099609"/>
     <use xlink:href="#DejaVuSans-6e" x="113.623047"/>
     <use xlink:href="#DejaVuSans-74" x="177.001953"/>
     <use xlink:href="#DejaVuSans-69" x="216.210938"/>
     <use xlink:href="#DejaVuSans-6e" x="243.994141"/>
     <use xlink:href="#DejaVuSans-65" x="307.373047"/>
     <use xlink:href="#DejaVuSans-6c" x="368.896484"/>
    </g>
   </g>
   <g id="text_12">
    <!--   Twitter (Pie)    -->
    <g style="fill: #ffffff" transform="translate(695.917102 342.835565)scale(0.12 -0.12)">
     <defs>
      <path id="DejaVuSans-54" d="M -19 4666 
L 3928 4666 
L 3928 4134 
L 2272 4134 
L 2272 0 
L 1638 0 
L 1638 4134 
L -19 4134 
L -19 4666 
z
" transform="scale(0.015625)"/>
      <path id="DejaVuSans-77" d="M 269 3500 
L 844 3500 
L 1563 769 
L 2278 3500 
L 2956 3500 
L 3675 769 
L 4391 3500 
L 4966 3500 
L 4050 0 
L 3372 0 
L 2619 2869 
L 1863 0 
L 1184 0 
L 269 3500 
z
" transform="scale(0.015625)"/>
     </defs>
     <use xlink:href="#DejaVuSans-20"/>
     <use xlink:href="#DejaVuSans-20" x="31.787109"/>
     <use xlink:href="#DejaVuSans-54" x="63.574219"/>
     <use xlink:href="#DejaVuSans-77" x="108.158203"/>
     <use xlink:href="#DejaVuSans-69" x="189.945312"/>
     <use xlink:href="#DejaVuSans-74" x="217.728516"/>
     <use xlink:href="#DejaVuSans-74" x="256.9375"/>
     <use xlink:href="#DejaVuSans-65" x="296.146484"/>
     <use xlink:href="#DejaVuSans-72" x="357.669922"/>
     <use xlink:href="#DejaVuSans-20" x="398.783203"/>
     <use xlink:href="#DejaVuSans-28" x="430.570312"/>
     <use xlink:href="#DejaVuSans-50" x="469.583984"/>
     <use xlink:href="#DejaVuSans-69" x="527.636719"/>
     <use xlink:href="#DejaVuSans-65" x="555.419922"/>
     <use xlink:href="#DejaVuSans-29" x="616.943359"/>
     <use xlink:href="#DejaVuSans-20" x="655.957031"/>
     <use xlink:href="#DejaVuSans-20" x="687.744141"/>
     <use xlink:href="#DejaVuSans-20" x="719.53125"/>
    </g>
   </g>
  </g>
  <g id="axes_3">
   <g id="patch_12">
    <path d="M 550.765767 303.021205 
L 931.220312 303.021205 
L 931.220312 73.9494 
L 550.765767 73.9494 
z
"/>
   </g>
   <g id="patch_13">
    <path d="M 550.765767 291.567614 
L 625.479793 291.567614 
L 625.479793 268.660434 
L 550.765767 268.660434 
z
" clip-path="url(#p1e18ee1d98)" style="fill: #f7fbff"/>
   </g>
   <g id="patch_14">
    <path d="M 550.765767 245.753253 
L 696.461741 245.753253 
L 696.461741 222.846073 
L 550.765767 222.846073 
z
" clip-path="url(#p1e18ee1d98)" style="fill: #f7fbff"/>
   </g>
   <g id="patch_15">
    <path d="M 550.765767 199.938893 
L 913.103429 199.938893 
L 913.103429 177.031712 
L 550.765767 177.031712 
z
" clip-path="url(#p1e18ee1d98)" style="fill: #f7fbff"/>
   </g>
   <g id="patch_16">
    <path d="M 550.765767 154.124532 
L 632.943949 154.124532 
L 632.943949 131.217351 
L 550.765767 131.217351 
z
" clip-path="url(#p1e18ee1d98)" style="fill: #f7fbff"/>
   </g>
   <g id="patch_17">
    <path d="M 550.765767 108.310171 
L 610.515248 108.310171 
L 610.515248 85.40299 
L 550.765767 85.40299 
z
" clip-path="url(#p1e18ee1d98)" style="fill: #f7fbff"/>
   </g>
   <g id="matplotlib.axis_5">
    <g id="xtick_1">
     <g id="line2d_1">
      <defs>
       <path id="m39f450ad00" d="M 0 0 
L 0 3.5 
" style="stroke: #ffffff; stroke-width: 0.8"/>
      </defs>
      <g>
       <use xlink:href="#m39f450ad00" x="550.765767" y="303.021205" style="fill: #ffffff; stroke: #ffffff; stroke-width: 0.8"/>
      </g>
     </g>
     <g id="text_13">
      <!-- 0 -->
      <g style="fill: #ffffff" transform="translate(547.584517 317.619642)scale(0.1 -0.1)">
       <defs>
        <path id="DejaVuSans-30" d="M 2034 4250 
Q 1547 4250 1301 3770 
Q 1056 3291 1056 2328 
Q 1056 1369 1301 889 
Q 1547 409 2034 409 
Q 2525 409 2770 889 
Q 3016 1369 3016 2328 
Q 3016 3291 2770 3770 
Q 2525 4250 2034 4250 
z
M 2034 4750 
Q 2819 4750 3233 4129 
Q 3647 3509 3647 2328 
Q 3647 1150 3233 529 
Q 2819 -91 2034 -91 
Q 1250 -91 836 529 
Q 422 1150 422 2328 
Q 422 3509 836 4129 
Q 1250 4750 2034 4750 
z
" transform="scale(0.015625)"/>
       </defs>
       <use xlink:href="#DejaVuSans-30"/>
      </g>
     </g>
    </g>
    <g id="xtick_2">
     <g id="line2d_2">
      <g>
       <use xlink:href="#m39f450ad00" x="623.2333" y="303.021205" style="fill: #ffffff; stroke: #ffffff; stroke-width: 0.8"/>
      </g>
     </g>
     <g id="text_14">
      <!-- 20 -->
      <g style="fill: #ffffff" transform="translate(616.8708 317.619642)scale(0.1 -0.1)">
       <defs>
        <path id="DejaVuSans-32" d="M 1228 531 
L 3431 531 
L 3431 0 
L 469 0 
L 469 531 
Q 828 903 1448 1529 
Q 2069 2156 2228 2338 
Q 2531 2678 2651 2914 
Q 2772 3150 2772 3378 
Q 2772 3750 2511 3984 
Q 2250 4219 1831 4219 
Q 1534 4219 1204 4116 
Q 875 4013 500 3803 
L 500 4441 
Q 881 4594 1212 4672 
Q 1544 4750 1819 4750 
Q 2544 4750 2975 4387 
Q 3406 4025 3406 3419 
Q 3406 3131 3298 2873 
Q 3191 2616 2906 2266 
Q 2828 2175 2409 1742 
Q 1991 1309 1228 531 
z
" transform="scale(0.015625)"/>
       </defs>
       <use xlink:href="#DejaVuSans-32"/>
       <use xlink:href="#DejaVuSans-30" x="63.623047"/>
      </g>
     </g>
    </g>
    <g id="xtick_3">
     <g id="line2d_3">
      <g>
       <use xlink:href="#m39f450ad00" x="695.700832" y="303.021205" style="fill: #ffffff; stroke: #ffffff; stroke-width: 0.8"/>
      </g>
     </g>
     <g id="text_15">
      <!-- 40 -->
      <g style="fill: #ffffff" transform="translate(689.338332 317.619642)scale(0.1 -0.1)">
       <defs>
        <path id="DejaVuSans-34" d="M 2419 4116 
L 825 1625 
L 2419 1625 
L 2419 4116 
z
M 2253 4666 
L 3047 4666 
L 3047 1625 
L 3713 1625 
L 3713 1100 
L 3047 1100 
L 3047 0 
L 2419 0 
L 2419 1100 
L 313 1100 
L 313 1709 
L 2253 4666 
z
" transform="scale(0.015625)"/>
       </defs>
       <use xlink:href="#DejaVuSans-34"/>
       <use xlink:href="#DejaVuSans-30" x="63.623047"/>
      </g>
     </g>
    </g>
    <g id="xtick_4">
     <g id="line2d_4">
      <g>
       <use xlink:href="#m39f450ad00" x="768.168364" y="303.021205" style="fill: #ffffff; stroke: #ffffff; stroke-width: 0.8"/>
      </g>
     </g>
     <g id="text_16">
      <!-- 60 -->
      <g style="fill: #ffffff" transform="translate(761.805864 317.619642)scale(0.1 -0.1)">
       <defs>
        <path id="DejaVuSans-36" d="M 2113 2584 
Q 1688 2584 1439 2293 
Q 1191 2003 1191 1497 
Q 1191 994 1439 701 
Q 1688 409 2113 409 
Q 2538 409 2786 701 
Q 3034 994 3034 1497 
Q 3034 2003 2786 2293 
Q 2538 2584 2113 2584 
z
M 3366 4563 
L 3366 3988 
Q 3128 4100 2886 4159 
Q 2644 4219 2406 4219 
Q 1781 4219 1451 3797 
Q 1122 3375 1075 2522 
Q 1259 2794 1537 2939 
Q 1816 3084 2150 3084 
Q 2853 3084 3261 2657 
Q 3669 2231 3669 1497 
Q 3669 778 3244 343 
Q 2819 -91 2113 -91 
Q 1303 -91 875 529 
Q 447 1150 447 2328 
Q 447 3434 972 4092 
Q 1497 4750 2381 4750 
Q 2619 4750 2861 4703 
Q 3103 4656 3366 4563 
z
" transform="scale(0.015625)"/>
       </defs>
       <use xlink:href="#DejaVuSans-36"/>
       <use xlink:href="#DejaVuSans-30" x="63.623047"/>
      </g>
     </g>
    </g>
    <g id="xtick_5">
     <g id="line2d_5">
      <g>
       <use xlink:href="#m39f450ad00" x="840.635897" y="303.021205" style="fill: #ffffff; stroke: #ffffff; stroke-width: 0.8"/>
      </g>
     </g>
     <g id="text_17">
      <!-- 80 -->
      <g style="fill: #ffffff" transform="translate(834.273397 317.619642)scale(0.1 -0.1)">
       <defs>
        <path id="DejaVuSans-38" d="M 2034 2216 
Q 1584 2216 1326 1975 
Q 1069 1734 1069 1313 
Q 1069 891 1326 650 
Q 1584 409 2034 409 
Q 2484 409 2743 651 
Q 3003 894 3003 1313 
Q 3003 1734 2745 1975 
Q 2488 2216 2034 2216 
z
M 1403 2484 
Q 997 2584 770 2862 
Q 544 3141 544 3541 
Q 544 4100 942 4425 
Q 1341 4750 2034 4750 
Q 2731 4750 3128 4425 
Q 3525 4100 3525 3541 
Q 3525 3141 3298 2862 
Q 3072 2584 2669 2484 
Q 3125 2378 3379 2068 
Q 3634 1759 3634 1313 
Q 3634 634 3220 271 
Q 2806 -91 2034 -91 
Q 1263 -91 848 271 
Q 434 634 434 1313 
Q 434 1759 690 2068 
Q 947 2378 1403 2484 
z
M 1172 3481 
Q 1172 3119 1398 2916 
Q 1625 2713 2034 2713 
Q 2441 2713 2670 2916 
Q 2900 3119 2900 3481 
Q 2900 3844 2670 4047 
Q 2441 4250 2034 4250 
Q 1625 4250 1398 4047 
Q 1172 3844 1172 3481 
z
" transform="scale(0.015625)"/>
       </defs>
       <use xlink:href="#DejaVuSans-38"/>
       <use xlink:href="#DejaVuSans-30" x="63.623047"/>
      </g>
     </g>
    </g>
    <g id="xtick_6">
     <g id="line2d_6">
      <g>
       <use xlink:href="#m39f450ad00" x="913.103429" y="303.021205" style="fill: #ffffff; stroke: #ffffff; stroke-width: 0.8"/>
      </g>
     </g>
     <g id="text_18">
      <!-- 100 -->
      <g style="fill: #ffffff" transform="translate(903.559679 317.619642)scale(0.1 -0.1)">
       <defs>
        <path id="DejaVuSans-31" d="M 794 531 
L 1825 531 
L 1825 4091 
L 703 3866 
L 703 4441 
L 1819 4666 
L 2450 4666 
L 2450 531 
L 3481 531 
L 3481 0 
L 794 0 
L 794 531 
z
" transform="scale(0.015625)"/>
       </defs>
       <use xlink:href="#DejaVuSans-31"/>
       <use xlink:href="#DejaVuSans-30" x="63.623047"/>
       <use xlink:href="#DejaVuSans-30" x="127.246094"/>
      </g>
     </g>
    </g>
   </g>
   <g id="matplotlib.axis_6">
    <g id="ytick_1">
     <g id="line2d_7">
      <defs>
       <path id="m81c8a858d6" d="M 0 0 
L -3.5 0 
" style="stroke: #ffffff; stroke-width: 0.8"/>
      </defs>
      <g>
       <use xlink:href="#m81c8a858d6" x="550.765767" y="280.114024" style="fill: #ffffff; stroke: #ffffff; stroke-width: 0.8"/>
      </g>
     </g>
     <g id="text_19">
      <!-- analyst -->
      <g style="fill: #ffffff" transform="translate(507.345455 283.913243)scale(0.1 -0.1)">
       <use xlink:href="#DejaVuSans-61"/>
       <use xlink:href="#DejaVuSans-6e" x="61.279297"/>
       <use xlink:href="#DejaVuSans-61" x="124.658203"/>
       <use xlink:href="#DejaVuSans-6c" x="185.9375"/>
       <use xlink:href="#DejaVuSans-79" x="213.720703"/>
       <use xlink:href="#DejaVuSans-73" x="272.900391"/>
       <use xlink:href="#DejaVuSans-74" x="325"/>
      </g>
     </g>
    </g>
    <g id="ytick_2">
     <g id="line2d_8">
      <g>
       <use xlink:href="#m81c8a858d6" x="550.765767" y="234.299663" style="fill: #ffffff; stroke: #ffffff; stroke-width: 0.8"/>
      </g>
     </g>
     <g id="text_20">
      <!-- diplomat -->
      <g style="fill: #ffffff" transform="translate(499.60483 238.098882)scale(0.1 -0.1)">
       <use xlink:href="#DejaVuSans-64"/>
       <use xlink:href="#DejaVuSans-69" x="63.476562"/>
       <use xlink:href="#DejaVuSans-70" x="91.259766"/>
       <use xlink:href="#DejaVuSans-6c" x="154.736328"/>
       <use xlink:href="#DejaVuSans-6f" x="182.519531"/>
       <use xlink:href="#DejaVuSans-6d" x="243.701172"/>
       <use xlink:href="#DejaVuSans-61" x="341.113281"/>
       <use xlink:href="#DejaVuSans-74" x="402.392578"/>
      </g>
     </g>
    </g>
    <g id="ytick_3">
     <g id="line2d_9">
      <g>
       <use xlink:href="#m81c8a858d6" x="550.765767" y="188.485302" style="fill: #ffffff; stroke: #ffffff; stroke-width: 0.8"/>
      </g>
     </g>
     <g id="text_21">
      <!-- domainUnion -->
      <g style="fill: #ffffff" transform="translate(477.42358 192.284521)scale(0.1 -0.1)">
       <use xlink:href="#DejaVuSans-64"/>
       <use xlink:href="#DejaVuSans-6f" x="63.476562"/>
       <use xlink:href="#DejaVuSans-6d" x="124.658203"/>
       <use xlink:href="#DejaVuSans-61" x="222.070312"/>
       <use xlink:href="#DejaVuSans-69" x="283.349609"/>
       <use xlink:href="#DejaVuSans-6e" x="311.132812"/>
       <use xlink:href="#DejaVuSans-55" x="374.511719"/>
       <use xlink:href="#DejaVuSans-6e" x="447.705078"/>
       <use xlink:href="#DejaVuSans-69" x="511.083984"/>
       <use xlink:href="#DejaVuSans-6f" x="538.867188"/>
       <use xlink:href="#DejaVuSans-6e" x="600.048828"/>
      </g>
     </g>
    </g>
    <g id="ytick_4">
     <g id="line2d_10">
      <g>
       <use xlink:href="#m81c8a858d6" x="550.765767" y="142.670941" style="fill: #ffffff; stroke: #ffffff; stroke-width: 0.8"/>
      </g>
     </g>
     <g id="text_22">
      <!-- explorer -->
      <g style="fill: #ffffff" transform="translate(502.47358 146.47016)scale(0.1 -0.1)">
       <use xlink:href="#DejaVuSans-65"/>
       <use xlink:href="#DejaVuSans-78" x="59.773438"/>
       <use xlink:href="#DejaVuSans-70" x="118.953125"/>
       <use xlink:href="#DejaVuSans-6c" x="182.429688"/>
       <use xlink:href="#DejaVuSans-6f" x="210.212891"/>
       <use xlink:href="#DejaVuSans-72" x="271.394531"/>
       <use xlink:href="#DejaVuSans-65" x="310.257812"/>
       <use xlink:href="#DejaVuSans-72" x="371.78125"/>
      </g>
     </g>
    </g>
    <g id="ytick_5">
     <g id="line2d_11">
      <g>
       <use xlink:href="#m81c8a858d6" x="550.765767" y="96.85658" style="fill: #ffffff; stroke: #ffffff; stroke-width: 0.8"/>
      </g>
     </g>
     <g id="text_23">
      <!-- sentinel -->
      <g style="fill: #ffffff" transform="translate(504.09858 100.655799)scale(0.1 -0.1)">
       <use xlink:href="#DejaVuSans-73"/>
       <use xlink:href="#DejaVuSans-65" x="52.099609"/>
       <use xlink:href="#DejaVuSans-6e" x="113.623047"/>
       <use xlink:href="#DejaVuSans-74" x="177.001953"/>
       <use xlink:href="#DejaVuSans-69" x="216.210938"/>
       <use xlink:href="#DejaVuSans-6e" x="243.994141"/>
       <use xlink:href="#DejaVuSans-65" x="307.373047"/>
       <use xlink:href="#DejaVuSans-6c" x="368.896484"/>
      </g>
     </g>
    </g>
    <g id="text_24">
     <!-- domain -->
     <g style="fill: #ffffff" transform="translate(471.343892 207.211084)rotate(-90)scale(0.1 -0.1)">
      <use xlink:href="#DejaVuSans-64"/>
      <use xlink:href="#DejaVuSans-6f" x="63.476562"/>
      <use xlink:href="#DejaVuSans-6d" x="124.658203"/>
      <use xlink:href="#DejaVuSans-61" x="222.070312"/>
      <use xlink:href="#DejaVuSans-69" x="283.349609"/>
      <use xlink:href="#DejaVuSans-6e" x="311.132812"/>
     </g>
    </g>
   </g>
   <g id="patch_18">
    <path d="M 550.765767 303.021205 
L 550.765767 73.9494 
" style="fill: none; stroke: #ffffff; stroke-width: 0.8; stroke-linejoin: miter; stroke-linecap: square"/>
   </g>
   <g id="patch_19">
    <path d="M 931.220312 303.021205 
L 931.220312 73.9494 
" style="fill: none; stroke: #ffffff; stroke-width: 0.8; stroke-linejoin: miter; stroke-linecap: square"/>
   </g>
   <g id="patch_20">
    <path d="M 550.765767 303.021205 
L 931.220312 303.021205 
" style="fill: none; stroke: #ffffff; stroke-width: 0.8; stroke-linejoin: miter; stroke-linecap: square"/>
   </g>
   <g id="patch_21">
    <path d="M 550.765767 73.9494 
L 931.220312 73.9494 
" style="fill: none; stroke: #ffffff; stroke-width: 0.8; stroke-linejoin: miter; stroke-linecap: square"/>
   </g>
   <g id="text_25">
    <!-- Twitter (Bar) -->
    <g style="fill: #ffffff" transform="translate(704.03304 67.9494)scale(0.12 -0.12)">
     <defs>
      <path id="DejaVuSans-42" d="M 1259 2228 
L 1259 519 
L 2272 519 
Q 2781 519 3026 730 
Q 3272 941 3272 1375 
Q 3272 1813 3026 2020 
Q 2781 2228 2272 2228 
L 1259 2228 
z
M 1259 4147 
L 1259 2741 
L 2194 2741 
Q 2656 2741 2882 2914 
Q 3109 3088 3109 3444 
Q 3109 3797 2882 3972 
Q 2656 4147 2194 4147 
L 1259 4147 
z
M 628 4666 
L 2241 4666 
Q 2963 4666 3353 4366 
Q 3744 4066 3744 3513 
Q 3744 3084 3544 2831 
Q 3344 2578 2956 2516 
Q 3422 2416 3680 2098 
Q 3938 1781 3938 1306 
Q 3938 681 3513 340 
Q 3088 0 2303 0 
L 628 0 
L 628 4666 
z
" transform="scale(0.015625)"/>
     </defs>
     <use xlink:href="#DejaVuSans-54"/>
     <use xlink:href="#DejaVuSans-77" x="44.583984"/>
     <use xlink:href="#DejaVuSans-69" x="126.371094"/>
     <use xlink:href="#DejaVuSans-74" x="154.154297"/>
     <use xlink:href="#DejaVuSans-74" x="193.363281"/>
     <use xlink:href="#DejaVuSans-65" x="232.572266"/>
     <use xlink:href="#DejaVuSans-72" x="294.095703"/>
     <use xlink:href="#DejaVuSans-20" x="335.208984"/>
     <use xlink:href="#DejaVuSans-28" x="366.996094"/>
     <use xlink:href="#DejaVuSans-42" x="406.009766"/>
     <use xlink:href="#DejaVuSans-61" x="474.613281"/>
     <use xlink:href="#DejaVuSans-72" x="535.892578"/>
     <use xlink:href="#DejaVuSans-29" x="577.005859"/>
    </g>
   </g>
  </g>
  <g id="axes_4">
   <g id="patch_22">
    <path d="M 94.220313 577.90737 
L 474.674858 577.90737 
L 474.674858 348.835565 
L 94.220313 348.835565 
z
"/>
   </g>
   <g id="patch_23">
    <path d="M 94.220313 566.45378 
L 261.257975 566.45378 
L 261.257975 543.546599 
L 94.220313 543.546599 
z
" clip-path="url(#paf935b78d7)" style="fill: #08306b"/>
   </g>
   <g id="patch_24">
    <path d="M 94.220313 520.639419 
L 192.051481 520.639419 
L 192.051481 497.732238 
L 94.220313 497.732238 
z
" clip-path="url(#paf935b78d7)" style="fill: #08306b"/>
   </g>
   <g id="patch_25">
    <path d="M 94.220313 474.825058 
L 456.557975 474.825058 
L 456.557975 451.917877 
L 94.220313 451.917877 
z
" clip-path="url(#paf935b78d7)" style="fill: #08306b"/>
   </g>
   <g id="patch_26">
    <path d="M 94.220313 429.010697 
L 154.006027 429.010697 
L 154.006027 406.103517 
L 94.220313 406.103517 
z
" clip-path="url(#paf935b78d7)" style="fill: #08306b"/>
   </g>
   <g id="patch_27">
    <path d="M 94.220313 383.196336 
L 131.903429 383.196336 
L 131.903429 360.289156 
L 94.220313 360.289156 
z
" clip-path="url(#paf935b78d7)" style="fill: #08306b"/>
   </g>
   <g id="matplotlib.axis_7">
    <g id="xtick_7">
     <g id="line2d_12">
      <g>
       <use xlink:href="#m39f450ad00" x="94.220313" y="577.90737" style="fill: #ffffff; stroke: #ffffff; stroke-width: 0.8"/>
      </g>
     </g>
     <g id="text_26">
      <!-- 0 -->
      <g style="fill: #ffffff" transform="translate(91.039062 592.505807)scale(0.1 -0.1)">
       <use xlink:href="#DejaVuSans-30"/>
      </g>
     </g>
    </g>
    <g id="xtick_8">
     <g id="line2d_13">
      <g>
       <use xlink:href="#m39f450ad00" x="166.687845" y="577.90737" style="fill: #ffffff; stroke: #ffffff; stroke-width: 0.8"/>
      </g>
     </g>
     <g id="text_27">
      <!-- 20 -->
      <g style="fill: #ffffff" transform="translate(160.325345 592.505807)scale(0.1 -0.1)">
       <use xlink:href="#DejaVuSans-32"/>
       <use xlink:href="#DejaVuSans-30" x="63.623047"/>
      </g>
     </g>
    </g>
    <g id="xtick_9">
     <g id="line2d_14">
      <g>
       <use xlink:href="#m39f450ad00" x="239.155377" y="577.90737" style="fill: #ffffff; stroke: #ffffff; stroke-width: 0.8"/>
      </g>
     </g>
     <g id="text_28">
      <!-- 40 -->
      <g style="fill: #ffffff" transform="translate(232.792877 592.505807)scale(0.1 -0.1)">
       <use xlink:href="#DejaVuSans-34"/>
       <use xlink:href="#DejaVuSans-30" x="63.623047"/>
      </g>
     </g>
    </g>
    <g id="xtick_10">
     <g id="line2d_15">
      <g>
       <use xlink:href="#m39f450ad00" x="311.62291" y="577.90737" style="fill: #ffffff; stroke: #ffffff; stroke-width: 0.8"/>
      </g>
     </g>
     <g id="text_29">
      <!-- 60 -->
      <g style="fill: #ffffff" transform="translate(305.26041 592.505807)scale(0.1 -0.1)">
       <use xlink:href="#DejaVuSans-36"/>
       <use xlink:href="#DejaVuSans-30" x="63.623047"/>
      </g>
     </g>
    </g>
    <g id="xtick_11">
     <g id="line2d_16">
      <g>
       <use xlink:href="#m39f450ad00" x="384.090442" y="577.90737" style="fill: #ffffff; stroke: #ffffff; stroke-width: 0.8"/>
      </g>
     </g>
     <g id="text_30">
      <!-- 80 -->
      <g style="fill: #ffffff" transform="translate(377.727942 592.505807)scale(0.1 -0.1)">
       <use xlink:href="#DejaVuSans-38"/>
       <use xlink:href="#DejaVuSans-30" x="63.623047"/>
      </g>
     </g>
    </g>
    <g id="xtick_12">
     <g id="line2d_17">
      <g>
       <use xlink:href="#m39f450ad00" x="456.557975" y="577.90737" style="fill: #ffffff; stroke: #ffffff; stroke-width: 0.8"/>
      </g>
     </g>
     <g id="text_31">
      <!-- 100 -->
      <g style="fill: #ffffff" transform="translate(447.014225 592.505807)scale(0.1 -0.1)">
       <use xlink:href="#DejaVuSans-31"/>
       <use xlink:href="#DejaVuSans-30" x="63.623047"/>
       <use xlink:href="#DejaVuSans-30" x="127.246094"/>
      </g>
     </g>
    </g>
   </g>
   <g id="matplotlib.axis_8">
    <g id="ytick_6">
     <g id="line2d_18">
      <g>
       <use xlink:href="#m81c8a858d6" x="94.220313" y="555.00019" style="fill: #ffffff; stroke: #ffffff; stroke-width: 0.8"/>
      </g>
     </g>
     <g id="text_32">
      <!-- analyst -->
      <g style="fill: #ffffff" transform="translate(50.8 558.799408)scale(0.1 -0.1)">
       <use xlink:href="#DejaVuSans-61"/>
       <use xlink:href="#DejaVuSans-6e" x="61.279297"/>
       <use xlink:href="#DejaVuSans-61" x="124.658203"/>
       <use xlink:href="#DejaVuSans-6c" x="185.9375"/>
       <use xlink:href="#DejaVuSans-79" x="213.720703"/>
       <use xlink:href="#DejaVuSans-73" x="272.900391"/>
       <use xlink:href="#DejaVuSans-74" x="325"/>
      </g>
     </g>
    </g>
    <g id="ytick_7">
     <g id="line2d_19">
      <g>
       <use xlink:href="#m81c8a858d6" x="94.220313" y="509.185829" style="fill: #ffffff; stroke: #ffffff; stroke-width: 0.8"/>
      </g>
     </g>
     <g id="text_33">
      <!-- diplomat -->
      <g style="fill: #ffffff" transform="translate(43.059375 512.985047)scale(0.1 -0.1)">
       <use xlink:href="#DejaVuSans-64"/>
       <use xlink:href="#DejaVuSans-69" x="63.476562"/>
       <use xlink:href="#DejaVuSans-70" x="91.259766"/>
       <use xlink:href="#DejaVuSans-6c" x="154.736328"/>
       <use xlink:href="#DejaVuSans-6f" x="182.519531"/>
       <use xlink:href="#DejaVuSans-6d" x="243.701172"/>
       <use xlink:href="#DejaVuSans-61" x="341.113281"/>
       <use xlink:href="#DejaVuSans-74" x="402.392578"/>
      </g>
     </g>
    </g>
    <g id="ytick_8">
     <g id="line2d_20">
      <g>
       <use xlink:href="#m81c8a858d6" x="94.220313" y="463.371468" style="fill: #ffffff; stroke: #ffffff; stroke-width: 0.8"/>
      </g>
     </g>
     <g id="text_34">
      <!-- domainUnion -->
      <g style="fill: #ffffff" transform="translate(20.878125 467.170686)scale(0.1 -0.1)">
       <use xlink:href="#DejaVuSans-64"/>
       <use xlink:href="#DejaVuSans-6f" x="63.476562"/>
       <use xlink:href="#DejaVuSans-6d" x="124.658203"/>
       <use xlink:href="#DejaVuSans-61" x="222.070312"/>
       <use xlink:href="#DejaVuSans-69" x="283.349609"/>
       <use xlink:href="#DejaVuSans-6e" x="311.132812"/>
       <use xlink:href="#DejaVuSans-55" x="374.511719"/>
       <use xlink:href="#DejaVuSans-6e" x="447.705078"/>
       <use xlink:href="#DejaVuSans-69" x="511.083984"/>
       <use xlink:href="#DejaVuSans-6f" x="538.867188"/>
       <use xlink:href="#DejaVuSans-6e" x="600.048828"/>
      </g>
     </g>
    </g>
    <g id="ytick_9">
     <g id="line2d_21">
      <g>
       <use xlink:href="#m81c8a858d6" x="94.220313" y="417.557107" style="fill: #ffffff; stroke: #ffffff; stroke-width: 0.8"/>
      </g>
     </g>
     <g id="text_35">
      <!-- explorer -->
      <g style="fill: #ffffff" transform="translate(45.928125 421.356326)scale(0.1 -0.1)">
       <use xlink:href="#DejaVuSans-65"/>
       <use xlink:href="#DejaVuSans-78" x="59.773438"/>
       <use xlink:href="#DejaVuSans-70" x="118.953125"/>
       <use xlink:href="#DejaVuSans-6c" x="182.429688"/>
       <use xlink:href="#DejaVuSans-6f" x="210.212891"/>
       <use xlink:href="#DejaVuSans-72" x="271.394531"/>
       <use xlink:href="#DejaVuSans-65" x="310.257812"/>
       <use xlink:href="#DejaVuSans-72" x="371.78125"/>
      </g>
     </g>
    </g>
    <g id="ytick_10">
     <g id="line2d_22">
      <g>
       <use xlink:href="#m81c8a858d6" x="94.220313" y="371.742746" style="fill: #ffffff; stroke: #ffffff; stroke-width: 0.8"/>
      </g>
     </g>
     <g id="text_36">
      <!-- sentinel -->
      <g style="fill: #ffffff" transform="translate(47.553125 375.541965)scale(0.1 -0.1)">
       <use xlink:href="#DejaVuSans-73"/>
       <use xlink:href="#DejaVuSans-65" x="52.099609"/>
       <use xlink:href="#DejaVuSans-6e" x="113.623047"/>
       <use xlink:href="#DejaVuSans-74" x="177.001953"/>
       <use xlink:href="#DejaVuSans-69" x="216.210938"/>
       <use xlink:href="#DejaVuSans-6e" x="243.994141"/>
       <use xlink:href="#DejaVuSans-65" x="307.373047"/>
       <use xlink:href="#DejaVuSans-6c" x="368.896484"/>
      </g>
     </g>
    </g>
    <g id="text_37">
     <!-- domain -->
     <g style="fill: #ffffff" transform="translate(14.798437 482.097249)rotate(-90)scale(0.1 -0.1)">
      <use xlink:href="#DejaVuSans-64"/>
      <use xlink:href="#DejaVuSans-6f" x="63.476562"/>
      <use xlink:href="#DejaVuSans-6d" x="124.658203"/>
      <use xlink:href="#DejaVuSans-61" x="222.070312"/>
      <use xlink:href="#DejaVuSans-69" x="283.349609"/>
      <use xlink:href="#DejaVuSans-6e" x="311.132812"/>
     </g>
    </g>
   </g>
   <g id="patch_28">
    <path d="M 94.220313 577.90737 
L 94.220313 348.835565 
" style="fill: none; stroke: #ffffff; stroke-width: 0.8; stroke-linejoin: miter; stroke-linecap: square"/>
   </g>
   <g id="patch_29">
    <path d="M 474.674858 577.90737 
L 474.674858 348.835565 
" style="fill: none; stroke: #ffffff; stroke-width: 0.8; stroke-linejoin: miter; stroke-linecap: square"/>
   </g>
   <g id="patch_30">
    <path d="M 94.220313 577.90737 
L 474.674858 577.90737 
" style="fill: none; stroke: #ffffff; stroke-width: 0.8; stroke-linejoin: miter; stroke-linecap: square"/>
   </g>
   <g id="patch_31">
    <path d="M 94.220313 348.835565 
L 474.674858 348.835565 
" style="fill: none; stroke: #ffffff; stroke-width: 0.8; stroke-linejoin: miter; stroke-linecap: square"/>
   </g>
   <g id="text_38">
    <!-- General Population (Bar) -->
    <g style="fill: #ffffff" transform="translate(210.526648 342.835565)scale(0.12 -0.12)">
     <use xlink:href="#DejaVuSans-47"/>
     <use xlink:href="#DejaVuSans-65" x="77.490234"/>
     <use xlink:href="#DejaVuSans-6e" x="139.013672"/>
     <use xlink:href="#DejaVuSans-65" x="202.392578"/>
     <use xlink:href="#DejaVuSans-72" x="263.916016"/>
     <use xlink:href="#DejaVuSans-61" x="305.029297"/>
     <use xlink:href="#DejaVuSans-6c" x="366.308594"/>
     <use xlink:href="#DejaVuSans-20" x="394.091797"/>
     <use xlink:href="#DejaVuSans-50" x="425.878906"/>
     <use xlink:href="#DejaVuSans-6f" x="482.556641"/>
     <use xlink:href="#DejaVuSans-70" x="543.738281"/>
     <use xlink:href="#DejaVuSans-75" x="607.214844"/>
     <use xlink:href="#DejaVuSans-6c" x="670.59375"/>
     <use xlink:href="#DejaVuSans-61" x="698.376953"/>
     <use xlink:href="#DejaVuSans-74" x="759.65625"/>
     <use xlink:href="#DejaVuSans-69" x="798.865234"/>
     <use xlink:href="#DejaVuSans-6f" x="826.648438"/>
     <use xlink:href="#DejaVuSans-6e" x="887.830078"/>
     <use xlink:href="#DejaVuSans-20" x="951.208984"/>
     <use xlink:href="#DejaVuSans-28" x="982.996094"/>
     <use xlink:href="#DejaVuSans-42" x="1022.009766"/>
     <use xlink:href="#DejaVuSans-61" x="1090.613281"/>
     <use xlink:href="#DejaVuSans-72" x="1151.892578"/>
     <use xlink:href="#DejaVuSans-29" x="1193.005859"/>
    </g>
   </g>
  </g>
  <g id="text_39">
   <!-- MBTI: General Population Vs Twitter -->
   <g style="fill: #ffffff" transform="translate(335.826562 19.3575)scale(0.16 -0.16)">
    <defs>
     <path id="DejaVuSans-Bold-4d" d="M 588 4666 
L 2119 4666 
L 3181 2169 
L 4250 4666 
L 5778 4666 
L 5778 0 
L 4641 0 
L 4641 3413 
L 3566 897 
L 2803 897 
L 1728 3413 
L 1728 0 
L 588 0 
L 588 4666 
z
" transform="scale(0.015625)"/>
     <path id="DejaVuSans-Bold-42" d="M 2456 2859 
Q 2741 2859 2887 2984 
Q 3034 3109 3034 3353 
Q 3034 3594 2887 3720 
Q 2741 3847 2456 3847 
L 1791 3847 
L 1791 2859 
L 2456 2859 
z
M 2497 819 
Q 2859 819 3042 972 
Q 3225 1125 3225 1434 
Q 3225 1738 3044 1889 
Q 2863 2041 2497 2041 
L 1791 2041 
L 1791 819 
L 2497 819 
z
M 3616 2497 
Q 4003 2384 4215 2081 
Q 4428 1778 4428 1338 
Q 4428 663 3972 331 
Q 3516 0 2584 0 
L 588 0 
L 588 4666 
L 2394 4666 
Q 3366 4666 3802 4372 
Q 4238 4078 4238 3431 
Q 4238 3091 4078 2852 
Q 3919 2613 3616 2497 
z
" transform="scale(0.015625)"/>
     <path id="DejaVuSans-Bold-54" d="M 31 4666 
L 4331 4666 
L 4331 3756 
L 2784 3756 
L 2784 0 
L 1581 0 
L 1581 3756 
L 31 3756 
L 31 4666 
z
" transform="scale(0.015625)"/>
     <path id="DejaVuSans-Bold-49" d="M 588 4666 
L 1791 4666 
L 1791 0 
L 588 0 
L 588 4666 
z
" transform="scale(0.015625)"/>
     <path id="DejaVuSans-Bold-3a" d="M 716 3500 
L 1844 3500 
L 1844 2291 
L 716 2291 
L 716 3500 
z
M 716 1209 
L 1844 1209 
L 1844 0 
L 716 0 
L 716 1209 
z
" transform="scale(0.015625)"/>
     <path id="DejaVuSans-Bold-20" transform="scale(0.015625)"/>
     <path id="DejaVuSans-Bold-47" d="M 4781 347 
Q 4331 128 3847 18 
Q 3363 -91 2847 -91 
Q 1681 -91 1000 561 
Q 319 1213 319 2328 
Q 319 3456 1012 4103 
Q 1706 4750 2913 4750 
Q 3378 4750 3804 4662 
Q 4231 4575 4609 4403 
L 4609 3438 
Q 4219 3659 3833 3768 
Q 3447 3878 3059 3878 
Q 2341 3878 1952 3476 
Q 1563 3075 1563 2328 
Q 1563 1588 1938 1184 
Q 2313 781 3003 781 
Q 3191 781 3352 804 
Q 3513 828 3641 878 
L 3641 1784 
L 2906 1784 
L 2906 2591 
L 4781 2591 
L 4781 347 
z
" transform="scale(0.015625)"/>
     <path id="DejaVuSans-Bold-65" d="M 4031 1759 
L 4031 1441 
L 1416 1441 
Q 1456 1047 1700 850 
Q 1944 653 2381 653 
Q 2734 653 3104 758 
Q 3475 863 3866 1075 
L 3866 213 
Q 3469 63 3072 -14 
Q 2675 -91 2278 -91 
Q 1328 -91 801 392 
Q 275 875 275 1747 
Q 275 2603 792 3093 
Q 1309 3584 2216 3584 
Q 3041 3584 3536 3087 
Q 4031 2591 4031 1759 
z
M 2881 2131 
Q 2881 2450 2695 2645 
Q 2509 2841 2209 2841 
Q 1884 2841 1681 2658 
Q 1478 2475 1428 2131 
L 2881 2131 
z
" transform="scale(0.015625)"/>
     <path id="DejaVuSans-Bold-6e" d="M 4056 2131 
L 4056 0 
L 2931 0 
L 2931 347 
L 2931 1631 
Q 2931 2084 2911 2256 
Q 2891 2428 2841 2509 
Q 2775 2619 2662 2680 
Q 2550 2741 2406 2741 
Q 2056 2741 1856 2470 
Q 1656 2200 1656 1722 
L 1656 0 
L 538 0 
L 538 3500 
L 1656 3500 
L 1656 2988 
Q 1909 3294 2193 3439 
Q 2478 3584 2822 3584 
Q 3428 3584 3742 3212 
Q 4056 2841 4056 2131 
z
" transform="scale(0.015625)"/>
     <path id="DejaVuSans-Bold-72" d="M 3138 2547 
Q 2991 2616 2845 2648 
Q 2700 2681 2553 2681 
Q 2122 2681 1889 2404 
Q 1656 2128 1656 1613 
L 1656 0 
L 538 0 
L 538 3500 
L 1656 3500 
L 1656 2925 
Q 1872 3269 2151 3426 
Q 2431 3584 2822 3584 
Q 2878 3584 2943 3579 
Q 3009 3575 3134 3559 
L 3138 2547 
z
" transform="scale(0.015625)"/>
     <path id="DejaVuSans-Bold-61" d="M 2106 1575 
Q 1756 1575 1579 1456 
Q 1403 1338 1403 1106 
Q 1403 894 1545 773 
Q 1688 653 1941 653 
Q 2256 653 2472 879 
Q 2688 1106 2688 1447 
L 2688 1575 
L 2106 1575 
z
M 3816 1997 
L 3816 0 
L 2688 0 
L 2688 519 
Q 2463 200 2181 54 
Q 1900 -91 1497 -91 
Q 953 -91 614 226 
Q 275 544 275 1050 
Q 275 1666 698 1953 
Q 1122 2241 2028 2241 
L 2688 2241 
L 2688 2328 
Q 2688 2594 2478 2717 
Q 2269 2841 1825 2841 
Q 1466 2841 1156 2769 
Q 847 2697 581 2553 
L 581 3406 
Q 941 3494 1303 3539 
Q 1666 3584 2028 3584 
Q 2975 3584 3395 3211 
Q 3816 2838 3816 1997 
z
" transform="scale(0.015625)"/>
     <path id="DejaVuSans-Bold-6c" d="M 538 4863 
L 1656 4863 
L 1656 0 
L 538 0 
L 538 4863 
z
" transform="scale(0.015625)"/>
     <path id="DejaVuSans-Bold-50" d="M 588 4666 
L 2584 4666 
Q 3475 4666 3951 4270 
Q 4428 3875 4428 3144 
Q 4428 2409 3951 2014 
Q 3475 1619 2584 1619 
L 1791 1619 
L 1791 0 
L 588 0 
L 588 4666 
z
M 1791 3794 
L 1791 2491 
L 2456 2491 
Q 2806 2491 2997 2661 
Q 3188 2831 3188 3144 
Q 3188 3456 2997 3625 
Q 2806 3794 2456 3794 
L 1791 3794 
z
" transform="scale(0.015625)"/>
     <path id="DejaVuSans-Bold-6f" d="M 2203 2784 
Q 1831 2784 1636 2517 
Q 1441 2250 1441 1747 
Q 1441 1244 1636 976 
Q 1831 709 2203 709 
Q 2569 709 2762 976 
Q 2956 1244 2956 1747 
Q 2956 2250 2762 2517 
Q 2569 2784 2203 2784 
z
M 2203 3584 
Q 3106 3584 3614 3096 
Q 4122 2609 4122 1747 
Q 4122 884 3614 396 
Q 3106 -91 2203 -91 
Q 1297 -91 786 396 
Q 275 884 275 1747 
Q 275 2609 786 3096 
Q 1297 3584 2203 3584 
z
" transform="scale(0.015625)"/>
     <path id="DejaVuSans-Bold-70" d="M 1656 506 
L 1656 -1331 
L 538 -1331 
L 538 3500 
L 1656 3500 
L 1656 2988 
Q 1888 3294 2169 3439 
Q 2450 3584 2816 3584 
Q 3463 3584 3878 3070 
Q 4294 2556 4294 1747 
Q 4294 938 3878 423 
Q 3463 -91 2816 -91 
Q 2450 -91 2169 54 
Q 1888 200 1656 506 
z
M 2400 2772 
Q 2041 2772 1848 2508 
Q 1656 2244 1656 1747 
Q 1656 1250 1848 986 
Q 2041 722 2400 722 
Q 2759 722 2948 984 
Q 3138 1247 3138 1747 
Q 3138 2247 2948 2509 
Q 2759 2772 2400 2772 
z
" transform="scale(0.015625)"/>
     <path id="DejaVuSans-Bold-75" d="M 500 1363 
L 500 3500 
L 1625 3500 
L 1625 3150 
Q 1625 2866 1622 2436 
Q 1619 2006 1619 1863 
Q 1619 1441 1641 1255 
Q 1663 1069 1716 984 
Q 1784 875 1895 815 
Q 2006 756 2150 756 
Q 2500 756 2700 1025 
Q 2900 1294 2900 1772 
L 2900 3500 
L 4019 3500 
L 4019 0 
L 2900 0 
L 2900 506 
Q 2647 200 2364 54 
Q 2081 -91 1741 -91 
Q 1134 -91 817 281 
Q 500 653 500 1363 
z
" transform="scale(0.015625)"/>
     <path id="DejaVuSans-Bold-74" d="M 1759 4494 
L 1759 3500 
L 2913 3500 
L 2913 2700 
L 1759 2700 
L 1759 1216 
Q 1759 972 1856 886 
Q 1953 800 2241 800 
L 2816 800 
L 2816 0 
L 1856 0 
Q 1194 0 917 276 
Q 641 553 641 1216 
L 641 2700 
L 84 2700 
L 84 3500 
L 641 3500 
L 641 4494 
L 1759 4494 
z
" transform="scale(0.015625)"/>
     <path id="DejaVuSans-Bold-69" d="M 538 3500 
L 1656 3500 
L 1656 0 
L 538 0 
L 538 3500 
z
M 538 4863 
L 1656 4863 
L 1656 3950 
L 538 3950 
L 538 4863 
z
" transform="scale(0.015625)"/>
     <path id="DejaVuSans-Bold-56" d="M 31 4666 
L 1241 4666 
L 2478 1222 
L 3713 4666 
L 4922 4666 
L 3194 0 
L 1759 0 
L 31 4666 
z
" transform="scale(0.015625)"/>
     <path id="DejaVuSans-Bold-73" d="M 3272 3391 
L 3272 2541 
Q 2913 2691 2578 2766 
Q 2244 2841 1947 2841 
Q 1628 2841 1473 2761 
Q 1319 2681 1319 2516 
Q 1319 2381 1436 2309 
Q 1553 2238 1856 2203 
L 2053 2175 
Q 2913 2066 3209 1816 
Q 3506 1566 3506 1031 
Q 3506 472 3093 190 
Q 2681 -91 1863 -91 
Q 1516 -91 1145 -36 
Q 775 19 384 128 
L 384 978 
Q 719 816 1070 734 
Q 1422 653 1784 653 
Q 2113 653 2278 743 
Q 2444 834 2444 1013 
Q 2444 1163 2330 1236 
Q 2216 1309 1875 1350 
L 1678 1375 
Q 931 1469 631 1722 
Q 331 1975 331 2491 
Q 331 3047 712 3315 
Q 1094 3584 1881 3584 
Q 2191 3584 2531 3537 
Q 2872 3491 3272 3391 
z
" transform="scale(0.015625)"/>
     <path id="DejaVuSans-Bold-77" d="M 225 3500 
L 1313 3500 
L 1900 1088 
L 2491 3500 
L 3425 3500 
L 4013 1113 
L 4603 3500 
L 5691 3500 
L 4769 0 
L 3547 0 
L 2956 2406 
L 2369 0 
L 1147 0 
L 225 3500 
z
" transform="scale(0.015625)"/>
    </defs>
    <use xlink:href="#DejaVuSans-Bold-4d"/>
    <use xlink:href="#DejaVuSans-Bold-42" x="99.511719"/>
    <use xlink:href="#DejaVuSans-Bold-54" x="175.732422"/>
    <use xlink:href="#DejaVuSans-Bold-49" x="243.945312"/>
    <use xlink:href="#DejaVuSans-Bold-3a" x="281.152344"/>
    <use xlink:href="#DejaVuSans-Bold-20" x="321.142578"/>
    <use xlink:href="#DejaVuSans-Bold-47" x="355.957031"/>
    <use xlink:href="#DejaVuSans-Bold-65" x="438.037109"/>
    <use xlink:href="#DejaVuSans-Bold-6e" x="505.859375"/>
    <use xlink:href="#DejaVuSans-Bold-65" x="577.050781"/>
    <use xlink:href="#DejaVuSans-Bold-72" x="644.873047"/>
    <use xlink:href="#DejaVuSans-Bold-61" x="694.189453"/>
    <use xlink:href="#DejaVuSans-Bold-6c" x="761.669922"/>
    <use xlink:href="#DejaVuSans-Bold-20" x="795.947266"/>
    <use xlink:href="#DejaVuSans-Bold-50" x="830.761719"/>
    <use xlink:href="#DejaVuSans-Bold-6f" x="904.052734"/>
    <use xlink:href="#DejaVuSans-Bold-70" x="972.753906"/>
    <use xlink:href="#DejaVuSans-Bold-75" x="1044.335938"/>
    <use xlink:href="#DejaVuSans-Bold-6c" x="1115.527344"/>
    <use xlink:href="#DejaVuSans-Bold-61" x="1149.804688"/>
    <use xlink:href="#DejaVuSans-Bold-74" x="1217.285156"/>
    <use xlink:href="#DejaVuSans-Bold-69" x="1265.087891"/>
    <use xlink:href="#DejaVuSans-Bold-6f" x="1299.365234"/>
    <use xlink:href="#DejaVuSans-Bold-6e" x="1368.066406"/>
    <use xlink:href="#DejaVuSans-Bold-20" x="1439.257812"/>
    <use xlink:href="#DejaVuSans-Bold-56" x="1474.072266"/>
    <use xlink:href="#DejaVuSans-Bold-73" x="1551.464844"/>
    <use xlink:href="#DejaVuSans-Bold-20" x="1610.986328"/>
    <use xlink:href="#DejaVuSans-Bold-54" x="1645.800781"/>
    <use xlink:href="#DejaVuSans-Bold-77" x="1703.013672"/>
    <use xlink:href="#DejaVuSans-Bold-69" x="1795.396484"/>
    <use xlink:href="#DejaVuSans-Bold-74" x="1829.673828"/>
    <use xlink:href="#DejaVuSans-Bold-74" x="1877.476562"/>
    <use xlink:href="#DejaVuSans-Bold-65" x="1925.279297"/>
    <use xlink:href="#DejaVuSans-Bold-72" x="1993.101562"/>
   </g>
  </g>
 </g>
 <defs>
  <clipPath id="p1e18ee1d98">
   <rect x="550.765767" y="73.9494" width="380.454545" height="229.071805"/>
  </clipPath>
  <clipPath id="paf935b78d7">
   <rect x="94.220313" y="348.835565" width="380.454545" height="229.071805"/>
  </clipPath>
 </defs>
</svg>
